<?xml version="1.0" encoding="UTF-8"?>
<svg version="1.1" xmlns="http://www.w3.org/2000/svg" width="340" height="287">
<path d="M0 0 C2.22613177 -0.00457233 4.45226213 -0.00988098 6.6783905 -0.0158844 C11.32544722 -0.02477489 15.97233171 -0.02243945 20.61938477 -0.01245117 C26.52970227 -0.00097601 32.43942097 -0.02117227 38.34965992 -0.05036831 C42.94235414 -0.06885065 47.53490809 -0.06841387 52.12763023 -0.06273079 C54.30459113 -0.06257899 56.48156241 -0.06850387 58.65848732 -0.08102226 C74.37383777 -0.15867321 90.16969379 0.43304007 104.29296875 8.18359375 C104.94305908 8.52358398 105.59314941 8.86357422 106.26293945 9.21386719 C112.21006846 12.40933949 117.64195589 16.22692353 122.91796875 20.43359375 C123.74296875 21.05234375 124.56796875 21.67109375 125.41796875 22.30859375 C140.17514848 34.85219652 148.66894171 55.62750547 150.91796875 74.43359375 C151.06318954 77.64873391 151.07499963 80.86004555 151.07910156 84.078125 C151.08406647 85.02065628 151.08903137 85.96318756 151.09414673 86.9342804 C151.10869428 90.03822576 151.11555951 93.14211995 151.12109375 96.24609375 C151.12533482 97.84671661 151.12533482 97.84671661 151.12966156 99.47967529 C151.14462763 105.13147222 151.15387222 110.78324382 151.15820312 116.43505859 C151.16367056 122.23691486 151.18766958 128.03853442 151.21617508 133.84031677 C151.23492097 138.33254646 151.24001348 142.82472061 151.241539 147.31698608 C151.24454133 149.45373828 151.25248664 151.59049007 151.26572418 153.72720337 C151.35089156 168.536463 151.14374313 183.02074712 144.66796875 196.68359375 C144.36568359 197.34488281 144.06339844 198.00617188 143.75195312 198.6875 C133.81245087 219.88354 117.38331014 234.67192898 95.4296875 242.7109375 C85.93694737 245.78759261 76.96422036 246.58112939 67.0546875 246.75 C66.00537552 246.77091705 64.95606354 246.79183411 63.87495422 246.81338501 C60.45186629 246.87956001 57.02871239 246.9385695 53.60546875 246.99609375 C52.43556396 247.01660797 51.26565918 247.03712219 50.06030273 247.05825806 C34.59274317 247.32644431 19.12389124 247.55220882 3.65396118 247.60983276 C1.85330592 247.61724402 0.05266048 247.62783934 -1.74795532 247.64187622 C-28.12209343 247.83056712 -51.69960957 242.1654965 -70.95703125 223.24609375 C-91.300876 202.43181066 -95.57471322 178.91250115 -95.48046875 150.77734375 C-95.48249583 148.61893618 -95.48541251 146.46052928 -95.48916626 144.30212402 C-95.49355979 139.80405074 -95.48725516 135.30615761 -95.47314453 130.80810547 C-95.45605467 125.08615522 -95.46591192 119.36462737 -95.48386192 113.64269257 C-95.4947806 109.19330754 -95.49121662 104.74402017 -95.48347855 100.29463196 C-95.4814988 98.18662972 -95.48385606 96.07861817 -95.49091721 93.97062683 C-95.56151933 66.98036459 -90.50294444 44.44831184 -71.08203125 24.43359375 C-70.5303125 23.80839844 -69.97859375 23.18320312 -69.41015625 22.5390625 C-51.41270909 2.80423802 -24.94931694 -0.04522442 0 0 Z M-54.08203125 49.6640625 C-55.84172336 51.86747008 -57.47852293 54.11467402 -59.08203125 56.43359375 C-59.54351562 57.0575 -60.005 57.68140625 -60.48046875 58.32421875 C-70.66425878 73.01356438 -69.24645284 91.9045128 -69.3203125 108.96875 C-69.32438803 109.77815977 -69.32846355 110.58756954 -69.33266258 111.42150688 C-69.35332368 115.69644775 -69.36771654 119.97135832 -69.37719727 124.24633789 C-69.38829419 128.61903536 -69.42278948 132.99122871 -69.46236897 137.3637476 C-69.48868076 140.76900586 -69.4969013 144.17414545 -69.50047874 147.57949638 C-69.50529735 149.19040823 -69.51677311 150.80131653 -69.53551674 152.41212654 C-69.73840587 170.98235159 -64.99468928 186.23928044 -51.84765625 199.734375 C-35.56237004 215.62863033 -16.25018344 217.59129243 5.4921875 217.6015625 C7.10488412 217.60478354 8.71758045 217.60814822 10.33027649 217.61164856 C13.70155513 217.61761215 17.07280826 217.61949139 20.4440918 217.61889648 C24.72587439 217.61879517 29.00749004 217.63242847 33.28923321 217.64966869 C36.61905136 217.6608877 39.94883045 217.66281266 43.27866554 217.66228676 C44.85522853 217.66345275 46.43179301 217.66779505 48.00833702 217.67561913 C70.30364937 217.77589205 88.3770545 214.348476 105.16796875 198.62109375 C120.34592851 182.69667695 122.25113752 163.30229052 122.18359375 142.24609375 C122.18494656 140.73022398 122.18689217 139.21435464 122.18939209 137.69848633 C122.19231445 134.54536749 122.18814007 131.39236317 122.17871094 128.23925781 C122.16731815 124.23896665 122.17389332 120.23894408 122.18585587 116.23866272 C122.19315335 113.11558076 122.19075077 109.99256034 122.18560028 106.86947632 C122.18428547 105.39618903 122.18583342 103.92289577 122.19055939 102.44961548 C122.24292917 81.54721449 118.97910558 62.9336779 104.16796875 47.18359375 C92.64128273 36.36488077 78.22667039 30.29490198 62.47851562 30.27246094 C61.64035309 30.26749603 60.80219055 30.26253113 59.93862915 30.25741577 C57.17131723 30.24283816 54.40406274 30.23599737 51.63671875 30.23046875 C50.68666458 30.22764137 49.73661041 30.224814 48.75776672 30.22190094 C43.72425052 30.20692125 38.69076285 30.19768575 33.65722656 30.19335938 C28.48734853 30.18789503 23.31773658 30.16390668 18.14794159 30.13538742 C14.14818596 30.11664452 10.14849272 30.11154915 6.1486969 30.1100235 C4.24474136 30.10701965 2.34078632 30.099069 0.43687439 30.08583832 C-20.45323208 29.9511011 -39.35954039 33.24503461 -54.08203125 49.6640625 Z " fill="#648272" transform="translate(143.08203125,16.56640625)"/>
<path d="M0 0 C3.20702317 2.46244875 6.2665441 5.01452334 9 8 C9 8.66 9 9.32 9 10 C9.66 10 10.32 10 11 10 C12.31567383 11.35009766 12.31567383 11.35009766 13.89453125 13.2890625 C16.94351038 16.8789768 20.17954991 20.20126519 23.57421875 23.4609375 C24.58148419 24.43739275 25.5886441 25.41395686 26.59570312 26.390625 C28.14208057 27.88770477 29.6922885 29.37952839 31.25610352 30.85839844 C38.64723993 37.86625643 44.17052696 44.12722336 45.4375 54.625 C44.18023453 64.32390506 39.51490817 69.2046148 32.73046875 75.86328125 C31.81670975 76.77708054 30.90295074 77.69087982 29.96150208 78.63237 C28.03501714 80.55720942 26.10036945 82.47329856 24.15893555 84.38305664 C21.68064583 86.82161548 19.22045286 89.2775056 16.76571178 91.73974323 C14.40777899 94.10149607 12.03763394 96.45079851 9.66796875 98.80078125 C8.7896489 99.67889969 7.91132904 100.55701813 7.00639343 101.46174622 C0.9998101 107.35327973 -3.6168736 111.42689694 -12.375 111.4375 C-24.06828071 111.07994782 -29.22028938 105.23659411 -37 97 C-38.661017 95.32770275 -40.32850245 93.66182174 -42 92 C-43.2711756 90.72950902 -44.541977 89.4586436 -45.8125 88.1875 C-46.49570313 87.50429687 -47.17890625 86.82109375 -47.8828125 86.1171875 C-54.1875 79.8125 -54.1875 79.8125 -56.18066406 77.81567383 C-57.7105993 76.28881817 -59.2523861 74.77385104 -60.796875 73.26171875 C-62.80485683 71.20033315 -64.5477983 69.12839021 -66.25 66.8125 C-66.75015625 66.13832031 -67.2503125 65.46414062 -67.765625 64.76953125 C-71.62959868 59.23035379 -71.06148803 51.47035306 -70 45 C-67.43560488 36.90237492 -63.25450248 29.7426774 -57 24 C-56.175 23.21625 -55.35 22.4325 -54.5 21.625 C-51.50915001 19.13519447 -48.22041068 17.55177859 -44.75 15.8125 C-38.82064055 12.72950353 -34.69473166 9.08251722 -30.14453125 4.23828125 C-21.49598779 -4.78834061 -10.720158 -6.43565041 0 0 Z " fill="#466353" transform="translate(183,86)"/>
<path d="M0 0 C-15.52521945 8.03984578 -32.76613043 7.52183079 -49.8125 7.6875 C-52.15170279 7.71906932 -54.49089559 7.75138738 -56.83007812 7.78442383 C-62.74666696 7.86292488 -68.66324233 7.92122471 -74.58013916 7.97070312 C-77.87036907 7.99888949 -81.16051356 8.03200255 -84.45068359 8.06640625 C-89.38574389 8.1160565 -94.32069281 8.15173723 -99.25595093 8.17422485 C-101.0600235 8.18295259 -102.86408531 8.19440841 -104.66812134 8.20883179 C-116.97486899 8.29659724 -129.09319646 8.11089285 -140.8125 3.875 C-141.80894531 3.52179688 -142.80539063 3.16859375 -143.83203125 2.8046875 C-144.90517578 2.40636719 -144.90517578 2.40636719 -146 2 C-145.01 1.34 -144.02 0.68 -143 0 C-142.505 0.309375 -142.01 0.61875 -141.5 0.9375 C-137.27533141 2.73298415 -132.87277903 3.70229214 -128.5 2.0625 C-128.005 1.711875 -127.51 1.36125 -127 1 C-127 1.99 -127 2.98 -127 4 C-125.02 3.67 -123.04 3.34 -121 3 C-120.67 3.66 -120.34 4.32 -120 5 C-112.63105185 5.05058145 -105.26214822 5.08568333 -97.89306641 5.10986328 C-95.38458585 5.11994011 -92.87611708 5.13360179 -90.36767578 5.15087891 C-86.76852512 5.17505337 -83.16952933 5.18646612 -79.5703125 5.1953125 C-77.87964157 5.21079636 -77.87964157 5.21079636 -76.15481567 5.22659302 C-75.11388763 5.22674408 -74.07295959 5.22689514 -73.00048828 5.22705078 C-71.62148849 5.23371262 -71.62148849 5.23371262 -70.21463013 5.24050903 C-67.79388224 5.21163592 -67.79388224 5.21163592 -66 3 C-65.01 3.495 -65.01 3.495 -64 4 C-61.44637396 4.08658569 -58.9204558 4.11562516 -56.3671875 4.09765625 C-55.61535187 4.0962413 -54.86351624 4.09482635 -54.08889771 4.09336853 C-51.6842249 4.08776465 -49.27964473 4.07521157 -46.875 4.0625 C-45.24609509 4.0574855 -43.61718873 4.0529225 -41.98828125 4.04882812 C-37.99215173 4.03779397 -33.99609158 4.02052679 -30 4 C-30 3.34 -30 2.68 -30 2 C-28.68 2.33 -27.36 2.66 -26 3 C-26 3.66 -26 4.32 -26 5 C-23.06556598 4.73343428 -23.06556598 4.73343428 -20 4 C-19.34 3.01 -18.68 2.02 -18 1 C-17.34 1 -16.68 1 -16 1 C-16 1.66 -16 2.32 -16 3 C-15.34 2.71125 -14.68 2.4225 -14 2.125 C-4.41176471 -1.47058824 -4.41176471 -1.47058824 0 0 Z " fill="#516659" transform="translate(246,256)"/>
<path d="M0 0 C1.20628008 2.33214148 2.1654738 4.49642139 3 7 C2.01 7 1.02 7 0 7 C-0.33 8.32 -0.66 9.64 -1 11 C0.32 11.33 1.64 11.66 3 12 C2.01 12.495 2.01 12.495 1 13 C0.67 13.66 0.34 14.32 0 15 C0.33 15.33 0.66 15.66 1 16 C0.690625 16.763125 0.38125 17.52625 0.0625 18.3125 C-1.57373881 22.4512217 -2.1193261 25.47203514 -2.09765625 29.91064453 C-2.09435303 31.13107452 -2.0910498 32.35150452 -2.08764648 33.60891724 C-2.08352753 34.26293644 -2.07940857 34.91695564 -2.07516479 35.59079361 C-2.06230276 37.66461471 -2.05585632 39.7383709 -2.05102539 41.81222534 C-2.03769972 46.98375741 -2.01399553 52.15523107 -1.98962402 57.32672119 C-1.9662139 62.36624316 -1.94778714 67.4057457 -1.9375 72.4453125 C-1.93597931 73.14910286 -1.93445862 73.85289322 -1.93289185 74.57801056 C-1.91453054 87.73563941 -2.31358779 100.85935934 -3 114 C-2.01 114.33 -1.02 114.66 0 115 C-0.66 115.99 -1.32 116.98 -2 118 C-0.68 118.66 0.64 119.32 2 120 C1.01 122.31 0.02 124.62 -1 127 C0.32 127.33 1.64 127.66 3 128 C2.814375 128.598125 2.62875 129.19625 2.4375 129.8125 C1.77906313 132.16408762 1.77906313 132.16408762 3 135 C2.67 135.99 2.34 136.98 2 138 C2.66 138 3.32 138 4 138 C3.505 139.98 3.505 139.98 3 142 C0.66110654 138.43286081 -0.64525685 135.27006719 -1.625 131.125 C-1.86476562 130.13757813 -2.10453125 129.15015625 -2.3515625 128.1328125 C-3.72626502 121.49117744 -4.15250756 115.12595833 -4.16113281 108.37133789 C-4.16609772 107.4304129 -4.17106262 106.48948792 -4.17617798 105.52005005 C-4.19072681 102.42091118 -4.19759138 99.3218236 -4.203125 96.22265625 C-4.20595238 95.15682249 -4.20877975 94.09098873 -4.21169281 92.99285698 C-4.22666027 87.34639109 -4.23590367 81.69995056 -4.24023438 76.0534668 C-4.24569851 70.26067679 -4.26969008 64.46812427 -4.29820633 58.67540836 C-4.31696603 54.18742733 -4.32204547 49.69950181 -4.32357025 45.21148491 C-4.32657007 43.07835029 -4.33450654 40.94521602 -4.34775543 38.81212044 C-4.42409263 25.57076889 -4.23326705 12.69980116 0 0 Z " fill="#304D37" transform="translate(52,72)"/>
<path d="M0 0 C-3.19128767 6.74215705 -7.62621574 11.95500259 -13.3984375 16.62109375 C-15.5833985 18.50229188 -17.23482495 20.73048922 -19 23 C-22 25 -22 25 -24.1875 24.625 C-25.0846875 24.315625 -25.0846875 24.315625 -26 24 C-20.03973638 11.15778252 -20.03973638 11.15778252 -15 7 C-14.50371094 6.56171875 -14.00742188 6.1234375 -13.49609375 5.671875 C-8.95705713 1.71301599 -6.0787485 -0.33770825 0 0 Z " fill="#6B8274" transform="translate(141,103)"/>
<path d="M0 0 C0.99 0.33 1.98 0.66 3 1 C3.6875 3.0625 3.6875 3.0625 4 5 C4.99 5 5.98 5 7 5 C8.69719127 5.94726954 10.36935236 6.94228261 12 8 C11.34 9.32 10.68 10.64 10 12 C10.639375 12.61875 11.27875 13.2375 11.9375 13.875 C14 16 14 16 15 18 C15.33 16.35 15.66 14.7 16 13 C16.99 13.33 17.98 13.66 19 14 C20.1875 17.5625 20.1875 17.5625 21 21 C22.32 21.33 23.64 21.66 25 22 C25 22.66 25 23.32 25 24 C25.99 23.67 26.98 23.34 28 23 C27.67 24.65 27.34 26.3 27 28 C25.296875 28.74609375 25.296875 28.74609375 23 29 C20.703125 27.41015625 20.703125 27.41015625 18.25 25.0625 C17.3734375 24.22847656 16.496875 23.39445312 15.59375 22.53515625 C14.7378125 21.69855469 13.881875 20.86195313 13 20 C12.2678125 19.31808594 11.535625 18.63617188 10.78125 17.93359375 C6.18979672 13.56288342 1.72859682 8.7882786 -1 3 C-0.67 2.01 -0.34 1.02 0 0 Z " fill="#354C3E" transform="translate(60,220)"/>
<path d="M0 0 C5.74955869 10.63427049 4.29354517 23.97974345 4.265625 35.69140625 C4.26697404 37.6887161 4.26891657 39.68602562 4.27142334 41.68333435 C4.2743572 45.84629477 4.27012909 50.00916882 4.26074219 54.17211914 C4.24928164 59.51549582 4.25595956 64.85867301 4.26788712 70.20204258 C4.2750959 74.31544006 4.27282348 78.42878977 4.26763153 82.54218864 C4.26629576 84.51383424 4.26794021 86.48548415 4.27259064 88.45712471 C4.27764698 91.20013172 4.26996139 93.94280872 4.25878906 96.68579102 C4.26283752 97.50288544 4.26688599 98.31997986 4.27105713 99.16183472 C4.22854244 104.77145756 4.22854244 104.77145756 2 107 C2.00333092 105.3762722 2.00333092 105.3762722 2.00672913 103.71974182 C2.02704236 93.49482634 2.04201149 83.26991498 2.05181217 73.04498386 C2.05702024 67.7888511 2.06408006 62.53273468 2.07543945 57.27661133 C2.08634226 52.19970986 2.09229247 47.12282407 2.09487724 42.04591179 C2.0967182 40.11354259 2.10031304 38.1811742 2.10573006 36.24881172 C2.11303871 33.53247377 2.11398682 30.81619979 2.11352539 28.09985352 C2.11712067 27.30934601 2.12071594 26.5188385 2.12442017 25.70437622 C2.11231936 19.07752442 1.85287458 12.48687689 -0.125 6.125 C-1 3 -1 3 0 0 Z " fill="#7A9289" transform="translate(290,76)"/>
<path d="M0 0 C-7.42857143 3.28571429 -7.42857143 3.28571429 -11 4 C-11.103125 4.639375 -11.20625 5.27875 -11.3125 5.9375 C-11.539375 6.618125 -11.76625 7.29875 -12 8 C-12.99 8.33 -13.98 8.66 -15 9 C-15.99 8.34 -16.98 7.68 -18 7 C-18 6.34 -18 5.68 -18 5 C-18.56589844 5.15597656 -19.13179688 5.31195313 -19.71484375 5.47265625 C-20.44832031 5.66730469 -21.18179688 5.86195313 -21.9375 6.0625 C-22.66839844 6.25972656 -23.39929688 6.45695313 -24.15234375 6.66015625 C-24.76207031 6.77230469 -25.37179688 6.88445312 -26 7 C-26.495 6.505 -26.495 6.505 -27 6 C-29.11605096 5.87608318 -31.23621283 5.82200094 -33.35571289 5.79467773 C-34.35079613 5.77982834 -34.35079613 5.77982834 -35.36598206 5.76467896 C-37.56816995 5.73298263 -39.77037945 5.70827466 -41.97265625 5.68359375 C-43.49580968 5.66303122 -45.01895731 5.64203495 -46.542099 5.62062073 C-50.55831214 5.56532753 -54.57457738 5.51595037 -58.59088135 5.46777344 C-62.68628599 5.41761118 -66.78161461 5.36189764 -70.87695312 5.30664062 C-78.91790455 5.19897046 -86.95891941 5.09754533 -95 5 C-95 5.66 -95 6.32 -95 7 C-95.66 7 -96.32 7 -97 7 C-97 6.34 -97 5.68 -97 5 C-97.9075 5.165 -98.815 5.33 -99.75 5.5 C-103 6 -103 6 -107 6 C-107.66 4.68 -108.32 3.36 -109 2 C-108.2583812 2.0702388 -107.51676239 2.1404776 -106.75267029 2.21284485 C-97.50353501 3.01439384 -88.30933261 3.16352692 -79.03515625 3.16796875 C-77.4281766 3.17119333 -75.82119722 3.17455823 -74.21421814 3.17805481 C-70.86684489 3.18399745 -67.51949728 3.18589964 -64.17211914 3.18530273 C-59.92183956 3.18520109 -55.67172693 3.19887739 -51.42148685 3.21607494 C-48.10883352 3.22728896 -44.79621947 3.22921912 -41.48354912 3.22869301 C-39.91815043 3.22985808 -38.35275022 3.23419496 -36.78737068 3.24202538 C-20.51876234 3.35157079 -20.51876234 3.35157079 -4.73085022 -0.13191223 C-2 -1 -2 -1 0 0 Z " fill="#435D50" transform="translate(228,230)"/>
<path d="M0 0 C3.4375 0.8125 3.4375 0.8125 5.4375 2.8125 C6.15060584 7.10771892 6.16832335 10.70273122 3.75 14.375 C0.97160897 16.10210794 -0.35444408 16.47056275 -3.5625 15.8125 C-5.86006777 13.99029108 -6.46728417 12.53509682 -6.84765625 9.6484375 C-7.07720754 3.52041608 -7.07720754 3.52041608 -5.26171875 1.0234375 C-3.5625 -0.1875 -3.5625 -0.1875 0 0 Z " fill="#AFBEB6" transform="translate(187.5625,130.1875)"/>
<path d="M0 0 C0.66 0.33 1.32 0.66 2 1 C2.23227061 27.00716152 1.57728088 53.00101378 1 79 C0.34 78.67 -0.32 78.34 -1 78 C-1.02321449 68.86364889 -1.04096143 59.72730801 -1.05181217 50.5909338 C-1.0570211 46.34812818 -1.0640825 42.1053428 -1.07543945 37.86254883 C-1.08633919 33.76471827 -1.09229182 29.66690713 -1.09487724 25.56906319 C-1.09671874 24.00904599 -1.10031468 22.4490298 -1.10573006 20.88902092 C-1.11303464 18.69674289 -1.11398699 16.50454418 -1.11352539 14.31225586 C-1.115746 13.06649277 -1.11796661 11.82072968 -1.12025452 10.53721619 C-0.99861715 6.95932434 -0.57204421 3.53155797 0 0 Z " fill="#374A3C" transform="translate(73,98)"/>
<path d="M0 0 C0 1.65 0 3.3 0 5 C-0.99 5 -1.98 5 -3 5 C-3 4.34 -3 3.68 -3 3 C-3.66 3.66 -4.32 4.32 -5 5 C-5.33 4.34 -5.66 3.68 -6 3 C-10.32371893 5.02633069 -10.32371893 5.02633069 -14 8 C-14 9.32 -14 10.64 -14 12 C-14.33 12.66 -14.66 13.32 -15 14 C-18 13 -18 13 -20 12 C-24.30331763 15.35868693 -27.80527549 18.92936995 -31.2890625 23.1328125 C-33.04481454 25.04890719 -34.8782175 26.50826645 -37 28 C-35.79618552 25.50638429 -34.54571278 23.31856917 -33 21 C-33.99 20.67 -34.98 20.34 -36 20 C-34.865625 19.360625 -33.73125 18.72125 -32.5625 18.0625 C-28.10256847 15.29971056 -24.73054651 11.83722384 -21.09765625 8.0859375 C-14.95550105 1.97809602 -8.69751285 -0.34790051 0 0 Z M-19 9 C-19 9.66 -19 10.32 -19 11 C-18.34 11 -17.68 11 -17 11 C-17 10.34 -17 9.68 -17 9 C-17.66 9 -18.32 9 -19 9 Z " fill="#5C7868" transform="translate(174,82)"/>
<path d="M0 0 C0.66 0.309375 1.32 0.61875 2 0.9375 C6.43302767 2.50753063 10.94788701 3.76954237 15.5 2.0625 C15.995 1.711875 16.49 1.36125 17 1 C17 1.99 17 2.98 17 4 C18.98 3.67 20.96 3.34 23 3 C23.33 3.66 23.66 4.32 24 5 C25.07378906 4.98839844 26.14757812 4.97679687 27.25390625 4.96484375 C28.69010241 4.95545685 30.12630048 4.94635762 31.5625 4.9375 C32.61920898 4.92493164 32.61920898 4.92493164 33.69726562 4.91210938 C38.23750189 4.89118663 42.4992665 5.33467418 47 6 C50.30965214 6.25047331 53.62211142 6.40870631 56.9375 6.5625 C57.81212891 6.60568359 58.68675781 6.64886719 59.58789062 6.69335938 C61.72511995 6.79846901 63.86254238 6.89963985 66 7 C66 7.33 66 7.66 66 8 C60.11418859 8.0499351 54.22850414 8.08596958 48.3425293 8.10986328 C46.34576261 8.11983827 44.34901022 8.13342309 42.35229492 8.15087891 C15.64656243 8.37827558 15.64656243 8.37827558 3.1875 3.875 C2.19105469 3.52179688 1.19460937 3.16859375 0.16796875 2.8046875 C-0.90517578 2.40636719 -0.90517578 2.40636719 -2 2 C-1.34 1.34 -0.68 0.68 0 0 Z " fill="#225526" transform="translate(102,256)"/>
<path d="M0 0 C1.98 0.66 3.96 1.32 6 2 C6.33 1.34 6.66 0.68 7 0 C7 0.99 7 1.98 7 3 C6.34 3 5.68 3 5 3 C4.67 3.66 4.34 4.32 4 5 C3.195625 5.2475 2.39125 5.495 1.5625 5.75 C-1.32371184 6.80955402 -1.32371184 6.80955402 -2.3125 10.125 C-2.539375 11.07375 -2.76625 12.0225 -3 13 C-3.66 12.67 -4.32 12.34 -5 12 C-5.433125 12.45375 -5.86625 12.9075 -6.3125 13.375 C-8 15 -8 15 -11 17 C-9.68 17.66 -8.36 18.32 -7 19 C-10 20 -10 20 -13 19 C-13.33 19.66 -13.66 20.32 -14 21 C-16.0625 21.625 -16.0625 21.625 -18 22 C-16.61947454 17.89494546 -14.74883732 15.28876448 -11.8125 12.125 C-11.01585938 11.26390625 -10.21921875 10.4028125 -9.3984375 9.515625 C-6.32004237 6.28681969 -3.20047879 3.10786043 0 0 Z M-19 22 C-19 25 -19 25 -19 25 Z " fill="#557061" transform="translate(79,34)"/>
<path d="M0 0 C1.20628008 2.33214148 2.1654738 4.49642139 3 7 C2.01 7 1.02 7 0 7 C-0.33 8.32 -0.66 9.64 -1 11 C0.32 11.33 1.64 11.66 3 12 C2.01 12.495 2.01 12.495 1 13 C0.67 13.66 0.34 14.32 0 15 C0.33 15.33 0.66 15.66 1 16 C0.690625 16.763125 0.38125 17.52625 0.0625 18.3125 C-1.74937686 22.89548266 -2.13325411 26.63995241 -2.09765625 31.51171875 C-2.0962413 32.23994339 -2.09482635 32.96816803 -2.09336853 33.71846008 C-2.08777659 36.04151539 -2.07522562 38.36447388 -2.0625 40.6875 C-2.05748396 42.26367048 -2.05292123 43.83984248 -2.04882812 45.41601562 C-2.0378098 49.27738098 -2.02055074 53.13867408 -2 57 C-2.33 57 -2.66 57 -3 57 C-4.45414792 50.87232557 -4.22363008 44.66171585 -4.24023438 38.40258789 C-4.24980305 36.23217361 -4.28079313 34.06276498 -4.3125 31.89257812 C-4.39332256 21.05510559 -3.44870113 10.34610338 0 0 Z " fill="#365E46" transform="translate(52,72)"/>
<path d="M0 0 C4.26359772 7.70454671 4.30464045 16.95146439 4.265625 25.55859375 C4.26753845 26.51016861 4.2694519 27.46174347 4.27142334 28.44215393 C4.27277219 30.43108387 4.26916772 32.420023 4.26074219 34.40893555 C4.24993983 37.45446286 4.26072444 40.49941155 4.2734375 43.54492188 C4.2721173 45.48698046 4.26955781 47.42903869 4.265625 49.37109375 C4.26967346 50.2783873 4.27372192 51.18568085 4.27789307 52.12046814 C4.27158875 52.96557449 4.26528442 53.81068085 4.25878906 54.68139648 C4.25719788 55.42099106 4.25560669 56.16058563 4.25396729 56.92259216 C3.96367731 59.2971132 3.17558769 60.93269342 2 63 C2.00523682 61.71424072 2.01047363 60.42848145 2.01586914 59.10375977 C2.03406656 54.30103256 2.04548559 49.49830837 2.05493164 44.69555664 C2.0599383 42.62296027 2.06674559 40.55036739 2.07543945 38.4777832 C2.08766646 35.48648208 2.09326513 32.49522794 2.09765625 29.50390625 C2.10281754 28.58791153 2.10797882 27.67191681 2.11329651 26.72816467 C2.11389555 19.74697969 1.95458952 12.83435768 -0.125 6.125 C-1 3 -1 3 0 0 Z " fill="#8EA797" transform="translate(290,76)"/>
<path d="M0 0 C0.33 0.99 0.66 1.98 1 3 C-7.9745962 12.69150181 -7.9745962 12.69150181 -15.16015625 13.2421875 C-24.36159274 13.42560484 -24.36159274 13.42560484 -28 11 C-25.51229865 9.43366952 -24.34447796 8.95899072 -21.375 9.3125 C-19 10 -19 10 -17 11 C-16.67 10.34 -16.34 9.68 -16 9 C-14.0390625 8.7265625 -14.0390625 8.7265625 -11.625 8.625 C-7.82914403 8.36363846 -7.82914403 8.36363846 -4.9375 5.9375 C-4.628125 5.298125 -4.31875 4.65875 -4 4 C-4.33 3.34 -4.66 2.68 -5 2 C-2 0 -2 0 0 0 Z " fill="#34493D" transform="translate(189,184)"/>
<path d="M0 0 C0.99 0.66 1.98 1.32 3 2 C5.38677076 2.29452584 7.78626094 2.4928217 10.1875 2.625 C11.45980469 2.69976562 12.73210937 2.77453125 14.04296875 2.8515625 C15.01878906 2.90054687 15.99460938 2.94953125 17 3 C17 3.33 17 3.66 17 4 C1.49 4 -14.02 4 -30 4 C-29.67 3.34 -29.34 2.68 -29 2 C-19.76 2 -10.52 2 -1 2 C-0.67 1.34 -0.34 0.68 0 0 Z " fill="#436049" transform="translate(179,259)"/>
<path d="M0 0 C-0.08746284 1.43861294 -0.19565348 2.87597508 -0.3125 4.3125 C-0.37050781 5.11300781 -0.42851562 5.91351563 -0.48828125 6.73828125 C-1.10620292 9.46940071 -1.79459925 10.30656728 -4 12 C-6.26171875 13.16796875 -6.26171875 13.16796875 -8.6875 14.1875 C-9.49574219 14.53167969 -10.30398437 14.87585938 -11.13671875 15.23046875 C-11.75160156 15.48441406 -12.36648437 15.73835938 -13 16 C-11.66793797 11.22677772 -6.29133822 0 0 0 Z " fill="#A2B3A6" transform="translate(131,106)"/>
<path d="M0 0 C0.33 0 0.66 0 1 0 C2.02565369 14.34083646 2.11352035 28.62657682 2 43 C2.99 43.33 3.98 43.66 5 44 C5 43.34 5 42.68 5 42 C5.66 42.33 6.32 42.66 7 43 C6.04956626 44.33897583 5.08940853 45.67105427 4.125 47 C3.59132813 47.7425 3.05765625 48.485 2.5078125 49.25 C2.01023437 49.8275 1.51265625 50.405 1 51 C0.34 51 -0.32 51 -1 51 C-0.67 34.17 -0.34 17.34 0 0 Z " fill="#86988E" transform="translate(265,126)"/>
<path d="M0 0 C1.097677 0.09849243 1.097677 0.09849243 2.2175293 0.19897461 C11.7459067 0.99832774 21.25673232 1.31457423 30.8125 1.5625 C32.39128408 1.60582772 33.97006023 1.64944576 35.54882812 1.69335938 C39.36580244 1.79890974 43.18286163 1.90056705 47 2 C47 2.33 47 2.66 47 3 C36.11 3 25.22 3 14 3 C14 3.66 14 4.32 14 5 C13.34 5 12.68 5 12 5 C12 4.34 12 3.68 12 3 C11.0925 3.165 10.185 3.33 9.25 3.5 C6 4 6 4 2 4 C1.34 2.68 0.68 1.36 0 0 Z " fill="#3D5548" transform="translate(119,232)"/>
<path d="M0 0 C2.97 0 5.94 0 9 0 C9.66 1.32 10.32 2.64 11 4 C14.05484045 7.04108661 14.05484045 7.04108661 18 8 C18.66 8.66 19.32 9.32 20 10 C19.625 12.125 19.625 12.125 19 14 C18.31035156 13.46890625 17.62070313 12.9378125 16.91015625 12.390625 C11.17674864 8.08073835 5.72728394 4.5248078 -1 2 C-0.67 1.34 -0.34 0.68 0 0 Z " fill="#98AEA1" transform="translate(226,49)"/>
<path d="M0 0 C2.97 0.495 2.97 0.495 6 1 C5.85879286 2.93784265 5.71187127 4.87526955 5.5625 6.8125 C5.48128906 7.89144531 5.40007812 8.97039062 5.31640625 10.08203125 C5 13 5 13 4 16 C3.01 15.67 2.02 15.34 1 15 C1.01160156 14.25234375 1.02320313 13.5046875 1.03515625 12.734375 C1.04417969 11.74953125 1.05320312 10.7646875 1.0625 9.75 C1.07410156 8.77546875 1.08570313 7.8009375 1.09765625 6.796875 C1.01195577 4.34241322 0.70706066 2.33831086 0 0 Z " fill="#759680" transform="translate(288,184)"/>
<path d="M0 0 C12.87 0 25.74 0 39 0 C37.68 2.31 36.36 4.62 35 7 C33 3.25 33 3.25 33 1 C22.11 1 11.22 1 0 1 C0 0.67 0 0.34 0 0 Z " fill="#8B9F91" transform="translate(183,17)"/>
<path d="M0 0 C0.556875 0.31453125 1.11375 0.6290625 1.6875 0.953125 C6.72838838 3.7801097 11.81197487 6.4531513 17 9 C16.67 9.66 16.34 10.32 16 11 C14.68 11 13.36 11 12 11 C11.34 10.34 10.68 9.68 10 9 C9.67 9.66 9.34 10.32 9 11 C8.01 10.67 7.02 10.34 6 10 C5.67 9.01 5.34 8.02 5 7 C5.33 6.67 5.66 6.34 6 6 C4.68 5.34 3.36 4.68 2 4 C1.67 4.66 1.34 5.32 1 6 C1 5.01 1 4.02 1 3 C0.34 3 -0.32 3 -1 3 C-0.67 2.01 -0.34 1.02 0 0 Z " fill="#3A5144" transform="translate(95,220)"/>
<path d="M0 0 C3.37462715 0.54723683 5.08235 1.0549 8 3 C4.04 8.94 4.04 8.94 0 15 C-1.15941038 11.52176885 -0.70820884 9.54104422 0 6 C0.99 6 1.98 6 3 6 C3.33 5.34 3.66 4.68 4 4 C2.35 4 0.7 4 -1 4 C-0.67 2.68 -0.34 1.36 0 0 Z " fill="#4D6959" transform="translate(81,64)"/>
<path d="M0 0 C1.55042709 3.10085417 0.20786623 5.20333565 -0.8125 8.4375 C-1.34810547 10.16806641 -1.34810547 10.16806641 -1.89453125 11.93359375 C-3 15 -3 15 -5 18 C-7.29013653 14.5647952 -7.17842973 13.014669 -7 9 C-6.34 9 -5.68 9 -5 9 C-4.67 7.35 -4.34 5.7 -4 4 C-3.01 4 -2.02 4 -1 4 C-0.67 2.68 -0.34 1.36 0 0 Z " fill="#4A6054" transform="translate(79,79)"/>
<path d="M0 0 C0.99 0.66 1.98 1.32 3 2 C3 2.99 3 3.98 3 5 C2.34 5 1.68 5 1 5 C1.99 6.485 1.99 6.485 3 8 C4.04449911 11.13349732 3.93423645 11.98968256 3 15 C-0.32993034 11.17058011 -2.05324525 6.62477778 -4 2 C-2.68 1.34 -1.36 0.68 0 0 Z " fill="#A9BFB0" transform="translate(259,72)"/>
<path d="M0 0 C-0.66 1.32 -1.32 2.64 -2 4 C-2.99 4 -3.98 4 -5 4 C-5.33 4.99 -5.66 5.98 -6 7 C-6.66 7 -7.32 7 -8 7 C-8 7.66 -8 8.32 -8 9 C-8.66 9 -9.32 9 -10 9 C-10.33 9.66 -10.66 10.32 -11 11 C-10.85958864 8.14496903 -10.73785867 5.73061565 -10 3 C-6.77907499 0.13695555 -4.2389376 -0.36333751 0 0 Z " fill="#719082" transform="translate(141,103)"/>
<path d="M0 0 C-7.42857143 3.28571429 -7.42857143 3.28571429 -11 4 C-11.1546875 4.9590625 -11.1546875 4.9590625 -11.3125 5.9375 C-11.539375 6.618125 -11.76625 7.29875 -12 8 C-12.99 8.33 -13.98 8.66 -15 9 C-15.99 8.34 -16.98 7.68 -18 7 C-18 6.34 -18 5.68 -18 5 C-18.66 4.67 -19.32 4.34 -20 4 C-19.23042969 3.81824219 -19.23042969 3.81824219 -18.4453125 3.6328125 C-13.96492508 2.47335122 -9.54780615 1.07782098 -5.1171875 -0.2578125 C-2 -1 -2 -1 0 0 Z " fill="#536E60" transform="translate(228,230)"/>
<path d="M0 0 C-6.22529789 3.09761199 -12.13523882 4.91081033 -19 6 C-19.33 5.34 -19.66 4.68 -20 4 C-19.34 3.01 -18.68 2.02 -18 1 C-17.34 1 -16.68 1 -16 1 C-16 1.66 -16 2.32 -16 3 C-15.34 2.71125 -14.68 2.4225 -14 2.125 C-4.41176471 -1.47058824 -4.41176471 -1.47058824 0 0 Z " fill="#577161" transform="translate(246,256)"/>
<path d="M0 0 C0.66 0.66 1.32 1.32 2 2 C1.34 3.32 0.68 4.64 0 6 C1.32 6.66 2.64 7.32 4 8 C1 9 1 9 -2 8 C-2.33 8.66 -2.66 9.32 -3 10 C-5.0625 10.625 -5.0625 10.625 -7 11 C-5.5140084 6.40693504 -3.14985318 3.56430755 0 0 Z M-8 11 C-8 14 -8 14 -8 14 Z " fill="#4F6859" transform="translate(68,45)"/>
<path d="M0 0 C0.66 0.309375 1.32 0.61875 2 0.9375 C6.43302767 2.50753063 10.94788701 3.76954237 15.5 2.0625 C15.995 1.711875 16.49 1.36125 17 1 C17.33 2.98 17.66 4.96 18 7 C11.17576662 5.76583013 4.60632156 4.1084005 -2 2 C-1.34 1.34 -0.68 0.68 0 0 Z " fill="#374B42" transform="translate(102,256)"/>
<path d="M0 0 C1.11375 0.2475 1.11375 0.2475 2.25 0.5 C5.19006578 1.11925696 5.19006578 1.11925696 9 1 C9.66 1.66 10.32 2.32 11 3 C8.375 4.625 8.375 4.625 5 6 C1.625 5.1875 1.625 5.1875 -1 4 C-0.67 2.68 -0.34 1.36 0 0 Z " fill="#597667" transform="translate(243,249)"/>
<path d="M0 0 C1.20628008 2.33214148 2.1654738 4.49642139 3 7 C2.01 7 1.02 7 0 7 C-0.33 8.32 -0.66 9.64 -1 11 C0.32 11.33 1.64 11.66 3 12 C2.01 12.495 2.01 12.495 1 13 C0.67 13.66 0.34 14.32 0 15 C-0.99 15.495 -0.99 15.495 -2 16 C-3.13314263 11.89517207 -2.78328091 9.24049263 -1.5625 5.1875 C-1.27503906 4.21167969 -0.98757812 3.23585938 -0.69140625 2.23046875 C-0.46324219 1.49441406 -0.23507813 0.75835937 0 0 Z " fill="#495A51" transform="translate(52,72)"/>
<path d="M0 0 C-3.32850747 3.59478807 -6.98971331 6.22364768 -11 9 C-10.75 5.625 -10.75 5.625 -10 2 C-7.00540673 -0.55094982 -3.79463585 -0.17248345 0 0 Z " fill="#546D5F" transform="translate(100,57)"/>
<path d="M0 0 C2.31 0.33 4.62 0.66 7 1 C7.33 3.31 7.66 5.62 8 8 C3.56909529 6.79157144 1.01887244 5.48331435 -2 2 C-1.34 2 -0.68 2 0 2 C0 1.34 0 0.68 0 0 Z " fill="#385041" transform="translate(89,248)"/>
<path d="M0 0 C1.33844519 4.46148395 0.97021019 8.48064484 0 13 C-1.5625 15.5625 -1.5625 15.5625 -3 17 C-3.66 16.67 -4.32 16.34 -5 16 C-3.41078475 10.63904723 -1.81027062 5.29156027 0 0 Z " fill="#748A7E" transform="translate(263,186)"/>
<path d="M0 0 C1.98 0 3.96 0 6 0 C6.33 1.32 6.66 2.64 7 4 C-0.92 3.67 -8.84 3.34 -17 3 C-17 2.67 -17 2.34 -17 2 C-11.39 2 -5.78 2 0 2 C0 1.34 0 0.68 0 0 Z " fill="#8D9A90" transform="translate(209,44)"/>
<path d="M0 0 C0.66 0.33 1.32 0.66 2 1 C2 8.26 2 15.52 2 23 C1.34 23 0.68 23 0 23 C-1.61566789 15.32557751 -1.33672837 7.68618813 0 0 Z " fill="#36433D" transform="translate(73,98)"/>
<path d="M0 0 C0.99 0.66 1.98 1.32 3 2 C5.38677076 2.29452584 7.78626094 2.4928217 10.1875 2.625 C11.45980469 2.69976562 12.73210937 2.77453125 14.04296875 2.8515625 C15.01878906 2.90054687 15.99460938 2.94953125 17 3 C17 3.33 17 3.66 17 4 C8.75 4 0.5 4 -8 4 C-8 3.34 -8 2.68 -8 2 C-5.69 2 -3.38 2 -1 2 C-0.67 1.34 -0.34 0.68 0 0 Z " fill="#49534D" transform="translate(179,259)"/>
<path d="M0 0 C0.99 0.99 1.98 1.98 3 3 C2.67 3.66 2.34 4.32 2 5 C2.27942455 6.67654729 2.60828247 8.34608154 3 10 C-1.03384128 7.92856799 -2.92856799 6.03384128 -5 2 C-3.35 1.34 -1.7 0.68 0 0 Z " fill="#3F554A" transform="translate(125,154)"/>
<path d="M0 0 C0.66 0.33 1.32 0.66 2 1 C-0.21928194 3.90802461 -1.92969143 5.95312762 -5 8 C-7.1875 7.625 -7.1875 7.625 -9 7 C-8.4375 5.1875 -8.4375 5.1875 -7 3 C-3.5 1.1875 -3.5 1.1875 0 0 Z " fill="#5E7163" transform="translate(124,120)"/>
<path d="M0 0 C2.52588702 2.36292656 3.88820837 3.66462511 5 7 C3.02 7.33 1.04 7.66 -1 8 C-3 5 -3 5 -2.75 2.875 C-2 1 -2 1 0 0 Z " fill="#A3B8AA" transform="translate(275,47)"/>
<path d="M0 0 C1.69141656 0.08963062 3.37959602 0.24577676 5.0625 0.4375 C6.44115234 0.59025391 6.44115234 0.59025391 7.84765625 0.74609375 C8.55792969 0.82988281 9.26820313 0.91367187 10 1 C9.01 1.33 8.02 1.66 7 2 C7 2.99 7 3.98 7 5 C5.68 4.67 4.36 4.34 3 4 C3.33 3.34 3.66 2.68 4 2 C3.34 2 2.68 2 2 2 C1.67 2.99 1.34 3.98 1 5 C0.34 3.68 -0.32 2.36 -1 1 C-0.67 0.67 -0.34 0.34 0 0 Z " fill="#92AC9D" transform="translate(222,18)"/>
<path d="M0 0 C0.33 0.66 0.66 1.32 1 2 C2.32 2 3.64 2 5 2 C5 6 5 6 4 8 C1.49642139 7.1654738 -0.66785852 6.20628008 -3 5 C-1.125 1.125 -1.125 1.125 0 0 Z M0 3 C0 3.66 0 4.32 0 5 C0.66 5 1.32 5 2 5 C2 4.34 2 3.68 2 3 C1.34 3 0.68 3 0 3 Z " fill="#567362" transform="translate(155,88)"/>
<path d="M0 0 C4.29 0.33 8.58 0.66 13 1 C12.01 1.33 11.02 1.66 10 2 C9.67 2.66 9.34 3.32 9 4 C6.69 4 4.38 4 2 4 C1.34 2.68 0.68 1.36 0 0 Z " fill="#485B50" transform="translate(119,232)"/>
<path d="M0 0 C1.32 0.66 2.64 1.32 4 2 C3.5359375 3.1446875 3.5359375 3.1446875 3.0625 4.3125 C1.80073022 7.50403533 0.80418432 10.66837926 0 14 C-0.33 14 -0.66 14 -1 14 C-1.18451025 4.58997722 -1.18451025 4.58997722 0 0 Z " fill="#40584E" transform="translate(49,86)"/>
<path d="M0 0 C2.97 0.495 2.97 0.495 6 1 C4.68 4.3 3.36 7.6 2 11 C1.67 11 1.34 11 1 11 C0.67 7.37 0.34 3.74 0 0 Z " fill="#9DB4A6" transform="translate(264,104)"/>
<path d="M0 0 C2.71843438 3.62457917 3.41789544 4.80884715 4 9 C2.35 9.33 0.7 9.66 -1 10 C-0.67 6.7 -0.34 3.4 0 0 Z " fill="#A9C2AF" transform="translate(284,61)"/>
<path d="M0 0 C1.93242285 3.34520258 2.5463853 6.44767482 3.125 10.25 C3.29257812 11.32765625 3.46015625 12.4053125 3.6328125 13.515625 C3.75398438 14.33546875 3.87515625 15.1553125 4 16 C3.34 16.33 2.68 16.66 2 17 C1.814375 15.4840625 1.814375 15.4840625 1.625 13.9375 C1.08863901 9.99199168 1.08863901 9.99199168 -0.125 6.25 C-1 3 -1 3 0 0 Z " fill="#A8BEAF" transform="translate(290,76)"/>
<path d="M0 0 C2.97 1.65 5.94 3.3 9 5 C9 5.99 9 6.98 9 8 C5.535 6.02 5.535 6.02 2 4 C1.67 4.66 1.34 5.32 1 6 C1 5.01 1 4.02 1 3 C0.34 3 -0.32 3 -1 3 C-0.67 2.01 -0.34 1.02 0 0 Z " fill="#33463C" transform="translate(95,220)"/>
<path d="M0 0 C0.66 0.33 1.32 0.66 2 1 C-0.3024119 3.60045875 -2.49896677 4.84739183 -5.6875 6.1875 C-6.49574219 6.53167969 -7.30398437 6.87585938 -8.13671875 7.23046875 C-8.75160156 7.48441406 -9.36648437 7.73835938 -10 8 C-9.3125 5.5625 -9.3125 5.5625 -8 3 C-5.5625 2.3125 -5.5625 2.3125 -3 2 C-2.01 1.34 -1.02 0.68 0 0 Z " fill="#8C9B91" transform="translate(128,114)"/>
<path d="M0 0 C0.33 0.99 0.66 1.98 1 3 C-0.98 4.98 -2.96 6.96 -5 9 C-5.66 8.67 -6.32 8.34 -7 8 C-6.01 6.68 -5.02 5.36 -4 4 C-4.33 3.34 -4.66 2.68 -5 2 C-2 0 -2 0 0 0 Z " fill="#3D5146" transform="translate(189,184)"/>
<path d="M0 0 C4.2742558 1.5830577 6.26531794 4.50568404 9 8 C3.25 6.125 3.25 6.125 1 5 C0.375 2.4375 0.375 2.4375 0 0 Z " fill="#5B7165" transform="translate(199,104)"/>
<path d="M0 0 C2.475 0.99 2.475 0.99 5 2 C4.34 3.32 3.68 4.64 3 6 C2.01 6 1.02 6 0 6 C-0.38218767 4.34385343 -0.71395102 2.67542976 -1 1 C-0.67 0.67 -0.34 0.34 0 0 Z " fill="#354D3F" transform="translate(138,169)"/>
<path d="M0 0 C0.66 0.33 1.32 0.66 2 1 C1.04956626 2.33897583 0.08940853 3.67105427 -0.875 5 C-1.40867187 5.7425 -1.94234375 6.485 -2.4921875 7.25 C-3.23855469 8.11625 -3.23855469 8.11625 -4 9 C-4.66 9 -5.32 9 -6 9 C-5.67 7.35 -5.34 5.7 -5 4 C-4.34 4 -3.68 4 -3 4 C-2.67 3.34 -2.34 2.68 -2 2 C-1.34 2 -0.68 2 0 2 C0 1.34 0 0.68 0 0 Z " fill="#799D90" transform="translate(270,168)"/>
<path d="M0 0 C1 2 1 2 0.44140625 3.9453125 C0.15136719 4.66460937 -0.13867188 5.38390625 -0.4375 6.125 C-0.72496094 6.84945312 -1.01242188 7.57390625 -1.30859375 8.3203125 C-1.53675781 8.87460938 -1.76492187 9.42890625 -2 10 C-2.99 9.67 -3.98 9.34 -5 9 C-4.67 7.35 -4.34 5.7 -4 4 C-3.01 4 -2.02 4 -1 4 C-0.67 2.68 -0.34 1.36 0 0 Z " fill="#4F6A59" transform="translate(79,79)"/>
<path d="M0 0 C1.98 1.65 3.96 3.3 6 5 C3 7 3 7 1 7 C1 7.66 1 8.32 1 9 C0.34 8.67 -0.32 8.34 -1 8 C-0.835 7.05125 -0.67 6.1025 -0.5 5.125 C0.0526635 2.19831099 0.0526635 2.19831099 0 0 Z " fill="#34483C" transform="translate(89,214)"/>
<path d="M0 0 C0.66 0.33 1.32 0.66 2 1 C1.67 2.65 1.34 4.3 1 6 C1.66 6 2.32 6 3 6 C2.67 7.32 2.34 8.64 2 10 C0.10134397 7.02819057 -1.35455571 4.48539917 -2 1 C-1.34 0.67 -0.68 0.34 0 0 Z " fill="#2B3E31" transform="translate(53,204)"/>
<path d="M0 0 C0.99 0.33 1.98 0.66 3 1 C1.02 3.31 -0.96 5.62 -3 8 C-3.33 7.01 -3.66 6.02 -4 5 C-2.0625 2.3125 -2.0625 2.3125 0 0 Z " fill="#415549" transform="translate(194,178)"/>
<path d="M0 0 C2.0625 2.3125 2.0625 2.3125 4 5 C3.67 5.99 3.34 6.98 3 8 C0.47411298 5.63707344 -0.88820837 4.33537489 -2 1 C-1.34 0.67 -0.68 0.34 0 0 Z " fill="#3F5448" transform="translate(115,145)"/>
<path d="M0 0 C1.65 0.33 3.3 0.66 5 1 C5 1.66 5 2.32 5 3 C4.34 3 3.68 3 3 3 C2.67 3.66 2.34 4.32 2 5 C-0.0625 5.625 -0.0625 5.625 -2 6 C-1.34 4.02 -0.68 2.04 0 0 Z " fill="#4F6C5B" transform="translate(58,59)"/>
<path d="M0 0 C0.61875 0.33 1.2375 0.66 1.875 1 C3.91018344 2.14193235 3.91018344 2.14193235 6 2 C6.66 2.66 7.32 3.32 8 4 C7.67 5.32 7.34 6.64 7 8 C4.36 6.02 1.72 4.04 -1 2 C-0.67 1.34 -0.34 0.68 0 0 Z " fill="#A0B3A8" transform="translate(238,55)"/>
<path d="M0 0 C0.66 0.66 1.32 1.32 2 2 C1.0479279 3.00596297 0.08812654 4.00461563 -0.875 5 C-1.40867188 5.556875 -1.94234375 6.11375 -2.4921875 6.6875 C-4 8 -4 8 -6 8 C-4.55746343 4.63408134 -2.66735273 2.48952921 0 0 Z " fill="#6B8473" transform="translate(151,92)"/>
<path d="M0 0 C1.875 0.1875 1.875 0.1875 4 1 C5.25 3.5625 5.25 3.5625 6 6 C5.01 5.67 4.02 5.34 3 5 C2.01 5.33 1.02 5.66 0 6 C0 4.02 0 2.04 0 0 Z " fill="#566E60" transform="translate(185,90)"/>
<path d="M0 0 C-0.33 0.66 -0.66 1.32 -1 2 C-1.99 1.67 -2.98 1.34 -4 1 C-4.33 1.66 -4.66 2.32 -5 3 C-7.5625 3.625 -7.5625 3.625 -10 4 C-10.66 3.01 -11.32 2.02 -12 1 C-7.93631321 0.22596442 -4.13574827 -0.0984702 0 0 Z " fill="#4C6357" transform="translate(212,233)"/>
<path d="M0 0 C0.66 0.66 1.32 1.32 2 2 C1.8125 4.0625 1.8125 4.0625 1 6 C0.01 6.33 -0.98 6.66 -2 7 C-2.66 6.34 -3.32 5.68 -4 5 C-2.68 3.35 -1.36 1.7 0 0 Z " fill="#AFBCB5" transform="translate(124,111)"/>
<path d="M0 0 C1.98 0.495 1.98 0.495 4 1 C3.34 2.65 2.68 4.3 2 6 C1.34 6 0.68 6 0 6 C-0.33 6.66 -0.66 7.32 -1 8 C-0.67 5.36 -0.34 2.72 0 0 Z " fill="#899A92" transform="translate(131,106)"/>
<path d="M0 0 C3.68802044 1.22934015 4.72356973 2.93859378 7 6 C6.01 6.33 5.02 6.66 4 7 C2 5.1875 2 5.1875 0 3 C0 2.01 0 1.02 0 0 Z " fill="#3C4C43" transform="translate(150,184)"/>
<path d="M0 0 C2 1 2 1 4 4 C3.625 6.1875 3.625 6.1875 3 8 C0.9375 5.6875 0.9375 5.6875 -1 3 C-0.67 2.01 -0.34 1.02 0 0 Z " fill="#A1B5AA" transform="translate(250,64)"/>
<path d="M0 0 C1.65 0 3.3 0 5 0 C5.66 1.32 6.32 2.64 7 4 C6.01 4.33 5.02 4.66 4 5 C1.8125 3.6875 1.8125 3.6875 0 2 C0 1.34 0 0.68 0 0 Z " fill="#A5B9AB" transform="translate(266,41)"/>
<path d="M0 0 C3.96 1.98 3.96 1.98 8 4 C4 5 4 5 1 5 C0.67 3.35 0.34 1.7 0 0 Z " fill="#98AC9F" transform="translate(245,24)"/>
<path d="M0 0 C0.99 0.33 1.98 0.66 3 1 C3 2.65 3 4.3 3 6 C1.68 6 0.36 6 -1 6 C-0.67 4.02 -0.34 2.04 0 0 Z " fill="#395049" transform="translate(114,128)"/>
<path d="M0 0 C1.65 1.32 3.3 2.64 5 4 C4.67 4.66 4.34 5.32 4 6 C1 6 1 6 -2 4 C-1.34 2.68 -0.68 1.36 0 0 Z " fill="#5C7666" transform="translate(194,98)"/>
<path d="M0 0 C1.65 0 3.3 0 5 0 C5.33 0.66 5.66 1.32 6 2 C5.34 2 4.68 2 4 2 C3.67 2.66 3.34 3.32 3 4 C2.01 4.495 2.01 4.495 1 5 C0.67 3.35 0.34 1.7 0 0 Z " fill="#53685D" transform="translate(49,83)"/>
<path d="M0 0 C1.32 0.66 2.64 1.32 4 2 C1.1875 3.5625 1.1875 3.5625 -2 5 C-2.99 4.67 -3.98 4.34 -5 4 C-3.35 2.68 -1.7 1.36 0 0 Z " fill="#4C5E54" transform="translate(107,50)"/>
<path d="M0 0 C1.65 0.99 3.3 1.98 5 3 C4.01 3.495 4.01 3.495 3 4 C2.67 4.66 2.34 5.32 2 6 C1.01 5.01 0.02 4.02 -1 3 C-0.67 2.01 -0.34 1.02 0 0 Z " fill="#9BB2A2" transform="translate(257,31)"/>
<path d="M0 0 C1.98 0 3.96 0 6 0 C6.33 1.32 6.66 2.64 7 4 C4.69 3.34 2.38 2.68 0 2 C0 1.34 0 0.68 0 0 Z " fill="#90A799" transform="translate(209,44)"/>
</svg>
